<?xml version="1.0" standalone="no"?>
<!DOCTYPE svg PUBLIC "-//W3C//DTD SVG 20010904//EN"
 "http://www.w3.org/TR/2001/REC-SVG-20010904/DTD/svg10.dtd">
<svg version="1.0" xmlns="http://www.w3.org/2000/svg"
 width="594.000000pt" height="594.000000pt" viewBox="0 0 594.000000 594.000000"
 preserveAspectRatio="xMidYMid meet">
<metadata>
Created by potrace 1.11, written by Peter Selinger 2001-2013
</metadata>
<g transform="translate(0.000000,594.000000) scale(0.100000,-0.100000)"
fill="#000000" stroke="none">
<path d="M1220 4524 c-322 -559 -585 -1026 -584 -1038 0 -15 1148 -2021 1170
-2045 6 -6 11 1 17 30 5 21 -92 196 -569 1020 -557 962 -575 995 -561 1019 8
14 257 446 552 960 296 514 543 940 548 945 7 7 7 3 2 -10 -108 -277 -165
-485 -207 -755 -20 -131 -17 -502 5 -615 68 -346 192 -561 534 -930 387 -417
1192 -1072 1888 -1535 136 -90 129 -84 116 -109 -11 -19 -9 -21 16 -21 27 0
58 52 616 1020 324 561 587 1026 585 1035 -2 8 -266 471 -588 1029 l-585 1015
-1185 0 -1185 0 -585 -1015z"/>
<path d="M2025 1089 c89 -60 183 -89 374 -114 128 -17 216 -37 261 -60 65 -33
119 -123 255 -420 142 -312 187 -374 240 -341 47 30 78 139 134 466 54 310 72
375 112 404 50 35 115 -8 165 -108 34 -69 36 -82 44 -210 5 -75 16 -161 24
-190 18 -60 63 -116 95 -116 43 0 61 71 86 350 17 186 29 275 44 328 l10 32
-937 0 -937 0 30 -21z"/>
</g>
</svg>
