<?xml version="1.0" encoding="utf-8"?>
<!-- Generator: Adobe Illustrator 23.0.3, SVG Export Plug-In . SVG Version: 6.00 Build 0)  -->
<svg version="1.1" xmlns="http://www.w3.org/2000/svg" xmlns:xlink="http://www.w3.org/1999/xlink" x="0px" y="0px"
	 viewBox="0 0 1584 1184.8" style="enable-background:new 0 0 1584 1184.8;" xml:space="preserve">
<style type="text/css">
	.st0{fill:#EDB400;stroke:#FFFFFF;stroke-width:2;stroke-miterlimit:10;}
	.st1{fill:#F8CB18;stroke:#FFFFFF;stroke-width:2;stroke-miterlimit:10;}
	.st2{display:none;}
	.st3{display:inline;fill:#F8CB18;stroke:#FFFFFF;stroke-width:2;stroke-miterlimit:10;}
	.st4{fill:#513000;}
	.st5{font-family:'AdornSCondensedSans';}
	.st6{font-size:210.1259px;}
</style>
<g id="Layer_4_1_">
	<polygon class="st0" points="1526.9,197.2 1453,197.2 1416,261.2 1453,325.2 1526.9,325.2 1563.8,261.2 	"/>
	<polygon class="st0" points="1527.9,453.2 1454,453.2 1417,517.2 1454,581.2 1527.9,581.2 1564.8,517.2 	"/>
	<polygon class="st0" points="1527.9,325.2 1454,325.2 1417,389.2 1454,453.2 1527.9,453.2 1564.8,389.2 	"/>
	<polygon class="st0" points="1525.9,75.2 1452,75.2 1415,139.2 1452,203.2 1525.9,203.2 1562.8,139.2 	"/>
	<polygon class="st0" points="1529.9,580.2 1456,580.2 1419,644.2 1456,708.2 1529.9,708.2 1566.8,644.2 	"/>
	<polygon class="st0" points="1531.4,707.5 1457.5,707.5 1420.5,771.5 1457.5,835.5 1531.4,835.5 1568.4,771.5 	"/>
	<polygon class="st0" points="1534.4,833.5 1460.5,833.5 1423.5,897.5 1460.5,961.5 1534.4,961.5 1571.3,897.5 	"/>
	<polygon class="st0" points="1534.4,961.8 1460.5,961.8 1423.5,1025.8 1460.5,1089.8 1534.4,1089.8 1571.3,1025.8 	"/>
	<polygon class="st0" points="1421.2,391.9 1347.3,391.9 1310.4,455.9 1347.3,519.9 1421.2,519.9 1458.2,455.9 	"/>
	<polygon class="st0" points="1419.2,13.9 1345.3,13.9 1308.4,77.9 1345.3,141.9 1419.2,141.9 1456.2,77.9 	"/>
	<polygon class="st0" points="1423.2,518.9 1349.3,518.9 1312.4,582.9 1349.3,646.9 1423.2,646.9 1460.2,582.9 	"/>
	<polygon class="st0" points="1424.8,646.2 1350.9,646.2 1313.9,710.2 1350.9,774.2 1424.8,774.2 1461.7,710.2 	"/>
	<polygon class="st0" points="1424.8,1028.8 1350.9,1028.8 1313.9,1092.8 1350.9,1156.8 1424.8,1156.8 1461.7,1092.8 	"/>
	<polygon class="st0" points="1311.3,198.8 1237.4,198.8 1200.4,262.8 1237.4,326.8 1311.3,326.8 1348.2,262.8 	"/>
	<polygon class="st0" points="1311.3,452.8 1237.4,452.8 1200.4,516.8 1237.4,580.8 1311.3,580.8 1348.2,516.8 	"/>
	<polygon class="st0" points="1315.8,707.1 1241.9,707.1 1204.9,771.1 1241.9,835.1 1315.8,835.1 1352.8,771.1 	"/>
	<polygon class="st0" points="1317.8,833.1 1243.9,833.1 1206.9,897.1 1243.9,961.1 1317.8,961.1 1354.7,897.1 	"/>
	<polygon class="st0" points="1204.6,391.5 1130.7,391.5 1093.8,455.5 1130.7,519.5 1204.6,519.5 1241.6,455.5 	"/>
	<polygon class="st0" points="1202.6,13.5 1128.7,13.5 1091.8,77.5 1128.7,141.5 1202.6,141.5 1239.6,77.5 	"/>
	<polygon class="st0" points="1211.2,900.1 1137.3,900.1 1100.3,964.1 1137.3,1028.1 1211.2,1028.1 1248.1,964.1 	"/>
	<polygon class="st0" points="1208.2,1028.4 1134.3,1028.4 1097.3,1092.4 1134.3,1156.4 1208.2,1156.4 1245.1,1092.4 	"/>
	<polygon class="st0" points="1094.1,203 1020.2,203 983.3,267 1020.2,331 1094.1,331 1131.1,267 	"/>
	<polygon class="st0" points="1095.1,459 1021.2,459 984.3,523 1021.2,587 1095.1,587 1132.1,523 	"/>
	<polygon class="st0" points="1095.1,331 1021.2,331 984.3,395 1021.2,459 1095.1,459 1132.1,395 	"/>
	<polygon class="st0" points="1093.1,81 1019.2,81 982.3,145 1019.2,209 1093.1,209 1130.1,145 	"/>
	<polygon class="st0" points="1101.7,839.3 1027.8,839.3 990.8,903.3 1027.8,967.3 1101.7,967.3 1138.6,903.3 	"/>
	<polygon class="st0" points="1101.7,967.6 1027.8,967.6 990.8,1031.6 1027.8,1095.6 1101.7,1095.6 1138.6,1031.6 	"/>
	<polygon class="st0" points="987.5,141.7 913.6,141.7 876.7,205.7 913.6,269.7 987.5,269.7 1024.5,205.7 	"/>
	<polygon class="st0" points="988.5,397.7 914.6,397.7 877.7,461.7 914.6,525.7 988.5,525.7 1025.5,461.7 	"/>
	<polygon class="st0" points="988.5,269.7 914.6,269.7 877.7,333.7 914.6,397.7 988.5,397.7 1025.5,333.7 	"/>
	<polygon class="st0" points="986.5,19.7 912.6,19.7 875.7,83.7 912.6,147.7 986.5,147.7 1023.5,83.7 	"/>
	<polygon class="st0" points="995,906.3 921.1,906.3 884.2,970.3 921.1,1034.3 995,1034.3 1032,970.3 	"/>
	<polygon class="st0" points="992.1,1034.6 918.2,1034.6 881.2,1098.6 918.2,1162.6 992.1,1162.6 1029,1098.6 	"/>
	<polygon class="st0" points="878.5,204.5 804.6,204.5 767.7,268.5 804.6,332.5 878.5,332.5 915.5,268.5 	"/>
	<polygon class="st0" points="878.5,458.5 804.6,458.5 767.7,522.5 804.6,586.5 878.5,586.5 915.5,522.5 	"/>
	<polygon class="st0" points="878.5,330.5 804.6,330.5 767.7,394.5 804.6,458.5 878.5,458.5 915.5,394.5 	"/>
	<polygon class="st0" points="876.5,80.5 802.6,80.5 765.7,144.5 802.6,208.5 876.5,208.5 913.5,144.5 	"/>
	<polygon class="st0" points="885.1,838.8 811.2,838.8 774.2,902.8 811.2,966.8 885.1,966.8 922,902.8 	"/>
	<polygon class="st0" points="885.1,967.1 811.2,967.1 774.2,1031.1 811.2,1095.1 885.1,1095.1 922,1031.1 	"/>
	<polygon class="st0" points="770.9,141.2 697,141.2 660.1,205.2 697,269.2 770.9,269.2 807.9,205.2 	"/>
	<polygon class="st0" points="769.9,19.2 696,19.2 659.1,83.2 696,147.2 769.9,147.2 806.9,83.2 	"/>
	<polygon class="st0" points="773.9,524.2 700,524.2 663.1,588.2 700,652.2 773.9,652.2 810.9,588.2 	"/>
	<polygon class="st0" points="775.5,651.5 701.6,651.5 664.6,715.5 701.6,779.5 775.5,779.5 812.4,715.5 	"/>
	<polygon class="st0" points="778.5,777.5 704.6,777.5 667.6,841.5 704.6,905.5 778.5,905.5 815.4,841.5 	"/>
	<polygon class="st0" points="778.5,905.8 704.6,905.8 667.6,969.8 704.6,1033.8 778.5,1033.8 815.4,969.8 	"/>
	<polygon class="st0" points="775.5,1034.2 701.6,1034.2 664.6,1098.2 701.6,1162.2 775.5,1162.2 812.4,1098.2 	"/>
	<polygon class="st0" points="664.6,81.4 590.7,81.4 553.7,145.4 590.7,209.4 664.6,209.4 701.5,145.4 	"/>
	<polygon class="st0" points="668.6,586.4 594.7,586.4 557.7,650.4 594.7,714.4 668.6,714.4 705.5,650.4 	"/>
	<polygon class="st0" points="670.1,713.7 596.2,713.7 559.3,777.7 596.2,841.7 670.1,841.7 707.1,777.7 	"/>
	<polygon class="st0" points="673.1,839.7 599.2,839.7 562.3,903.7 599.2,967.7 673.1,967.7 710.1,903.7 	"/>
	<polygon class="st0" points="673.1,968.1 599.2,968.1 562.3,1032.1 599.2,1096.1 673.1,1096.1 710.1,1032.1 	"/>
	<polygon class="st0" points="559,142.1 485.1,142.1 448.1,206.1 485.1,270.1 559,270.1 595.9,206.1 	"/>
	<polygon class="st0" points="558,20.1 484.1,20.1 447.1,84.1 484.1,148.1 558,148.1 594.9,84.1 	"/>
	<polygon class="st0" points="562,525.1 488.1,525.1 451.1,589.1 488.1,653.1 562,653.1 598.9,589.1 	"/>
	<polygon class="st0" points="563.5,652.4 489.6,652.4 452.7,716.4 489.6,780.4 563.5,780.4 600.5,716.4 	"/>
	<polygon class="st0" points="566.5,906.8 492.6,906.8 455.7,970.8 492.6,1034.8 566.5,1034.8 603.5,970.8 	"/>
	<polygon class="st0" points="563.5,1035.1 489.6,1035.1 452.7,1099.1 489.6,1163.1 563.5,1163.1 600.5,1099.1 	"/>
	<polygon class="st0" points="448,81 374.1,81 337.1,145 374.1,209 448,209 484.9,145 	"/>
	<polygon class="st0" points="452,586 378.1,586 341.1,650 378.1,714 452,714 488.9,650 	"/>
	<polygon class="st0" points="456.5,967.6 382.6,967.6 345.7,1031.6 382.6,1095.6 456.5,1095.6 493.5,1031.6 	"/>
	<polygon class="st0" points="342.4,141.7 268.5,141.7 231.5,205.7 268.5,269.7 342.4,269.7 379.3,205.7 	"/>
	<polygon class="st0" points="345.4,524.7 271.5,524.7 234.5,588.7 271.5,652.7 345.4,652.7 382.3,588.7 	"/>
	<polygon class="st0" points="346.9,652 273,652 236.1,716 273,780 346.9,780 383.9,716 	"/>
	<polygon class="st0" points="349.9,906.3 276,906.3 239.1,970.3 276,1034.3 349.9,1034.3 386.9,970.3 	"/>
	<polygon class="st0" points="346.9,1034.6 273,1034.6 236.1,1098.6 273,1162.6 346.9,1162.6 383.9,1098.6 	"/>
	<polygon class="st0" points="233.9,465.2 160,465.2 123,529.2 160,593.2 233.9,593.2 270.8,529.2 	"/>
	<polygon class="st0" points="231.9,87.2 158,87.2 121,151.2 158,215.2 231.9,215.2 268.8,151.2 	"/>
	<polygon class="st0" points="237.4,719.5 163.5,719.5 126.5,783.5 163.5,847.5 237.4,847.5 274.4,783.5 	"/>
	<polygon class="st0" points="240.4,845.5 166.5,845.5 129.5,909.5 166.5,973.5 240.4,973.5 277.3,909.5 	"/>
	<polygon class="st0" points="126.2,147.9 52.3,147.9 15.4,211.9 52.3,275.9 126.2,275.9 163.2,211.9 	"/>
	<polygon class="st0" points="127.2,403.9 53.3,403.9 16.4,467.9 53.3,531.9 127.2,531.9 164.2,467.9 	"/>
	<polygon class="st0" points="127.2,275.9 53.3,275.9 16.4,339.9 53.3,403.9 127.2,403.9 164.2,339.9 	"/>
	<polygon class="st0" points="125.2,25.9 51.3,25.9 14.4,89.9 51.3,153.9 125.2,153.9 162.2,89.9 	"/>
	<polygon class="st0" points="133.8,784.2 59.9,784.2 22.9,848.2 59.9,912.2 133.8,912.2 170.7,848.2 	"/>
	<polygon class="st0" points="133.8,912.5 59.9,912.5 22.9,976.5 59.9,1040.5 133.8,1040.5 170.7,976.5 	"/>
	<polygon class="st0" points="130.8,1040.8 56.9,1040.8 19.9,1104.8 56.9,1168.8 130.8,1168.8 167.7,1104.8 	"/>
</g>
<g id="Layer_2">
	<polygon class="st1" points="1518.3,183.8 1444.4,183.8 1407.5,247.8 1444.4,311.8 1518.3,311.8 1555.3,247.8 	"/>
	<polygon class="st1" points="1519.3,439.8 1445.4,439.8 1408.5,503.8 1445.4,567.8 1519.3,567.8 1556.3,503.8 	"/>
	<polygon class="st1" points="1519.3,311.8 1445.4,311.8 1408.5,375.8 1445.4,439.8 1519.3,439.8 1556.3,375.8 	"/>
	<polygon class="st1" points="1517.3,61.8 1443.4,61.8 1406.5,125.8 1443.4,189.8 1517.3,189.8 1554.3,125.8 	"/>
	<polygon class="st1" points="1521.3,566.8 1447.4,566.8 1410.5,630.8 1447.4,694.8 1521.3,694.8 1558.3,630.8 	"/>
	<polygon class="st1" points="1522.9,694.1 1449,694.1 1412,758.1 1449,822.1 1522.9,822.1 1559.8,758.1 	"/>
	<polygon class="st1" points="1525.8,820.1 1451.9,820.1 1415,884.1 1451.9,948.1 1525.8,948.1 1562.8,884.1 	"/>
	<polygon class="st1" points="1525.8,948.4 1451.9,948.4 1415,1012.4 1451.9,1076.4 1525.8,1076.4 1562.8,1012.4 	"/>
	<polygon class="st1" points="1412.7,378.5 1338.8,378.5 1301.8,442.5 1338.8,506.5 1412.7,506.5 1449.6,442.5 	"/>
	<polygon class="st1" points="1410.7,0.5 1336.8,0.5 1299.8,64.5 1336.8,128.5 1410.7,128.5 1447.6,64.5 	"/>
	<polygon class="st1" points="1414.7,505.5 1340.8,505.5 1303.8,569.5 1340.8,633.5 1414.7,633.5 1451.6,569.5 	"/>
	<polygon class="st1" points="1416.2,632.8 1342.3,632.8 1305.4,696.8 1342.3,760.8 1416.2,760.8 1453.2,696.8 	"/>
	<polygon class="st1" points="1416.2,1015.4 1342.3,1015.4 1305.4,1079.4 1342.3,1143.4 1416.2,1143.4 1453.2,1079.4 	"/>
	<polygon class="st1" points="1302.7,185.3 1228.8,185.3 1191.9,249.3 1228.8,313.3 1302.7,313.3 1339.7,249.3 	"/>
	<polygon class="st1" points="1302.7,439.3 1228.8,439.3 1191.9,503.3 1228.8,567.3 1302.7,567.3 1339.7,503.3 	"/>
	<polygon class="st1" points="1307.3,693.6 1233.4,693.6 1196.4,757.6 1233.4,821.6 1307.3,821.6 1344.2,757.6 	"/>
	<polygon class="st1" points="1309.3,819.6 1235.4,819.6 1198.4,883.6 1235.4,947.6 1309.3,947.6 1346.2,883.6 	"/>
	<polygon class="st1" points="1196.1,378 1122.2,378 1085.2,442 1122.2,506 1196.1,506 1233,442 	"/>
	<polygon class="st1" points="1194.1,0 1120.2,0 1083.2,64 1120.2,128 1194.1,128 1231,64 	"/>
	<polygon class="st1" points="1202.6,886.6 1128.7,886.6 1091.8,950.6 1128.7,1014.6 1202.6,1014.6 1239.6,950.6 	"/>
	<polygon class="st1" points="1199.6,1014.9 1125.7,1014.9 1088.8,1078.9 1125.7,1142.9 1199.6,1142.9 1236.6,1078.9 	"/>
	<polygon class="st1" points="1085.6,189.5 1011.7,189.5 974.7,253.5 1011.7,317.5 1085.6,317.5 1122.5,253.5 	"/>
	<polygon class="st1" points="1086.6,445.5 1012.7,445.5 975.7,509.5 1012.7,573.5 1086.6,573.5 1123.5,509.5 	"/>
	<polygon class="st1" points="1086.6,317.5 1012.7,317.5 975.7,381.5 1012.7,445.5 1086.6,445.5 1123.5,381.5 	"/>
	<polygon class="st1" points="1084.6,67.5 1010.7,67.5 973.7,131.5 1010.7,195.5 1084.6,195.5 1121.5,131.5 	"/>
	<polygon class="st1" points="1093.1,825.8 1019.2,825.8 982.3,889.8 1019.2,953.8 1093.1,953.8 1130.1,889.8 	"/>
	<polygon class="st1" points="1093.1,954.1 1019.2,954.1 982.3,1018.1 1019.2,1082.1 1093.1,1082.1 1130.1,1018.1 	"/>
	<polygon class="st1" points="979,128.2 905.1,128.2 868.1,192.2 905.1,256.2 979,256.2 1015.9,192.2 	"/>
	<polygon class="st1" points="980,384.2 906.1,384.2 869.1,448.2 906.1,512.2 980,512.2 1016.9,448.2 	"/>
	<polygon class="st1" points="980,256.2 906.1,256.2 869.1,320.2 906.1,384.2 980,384.2 1016.9,320.2 	"/>
	<polygon class="st1" points="978,6.2 904.1,6.2 867.1,70.2 904.1,134.2 978,134.2 1014.9,70.2 	"/>
	<polygon class="st1" points="986.5,892.8 912.6,892.8 875.7,956.8 912.6,1020.8 986.5,1020.8 1023.5,956.8 	"/>
	<polygon class="st1" points="983.5,1021.2 909.6,1021.2 872.7,1085.2 909.6,1149.2 983.5,1149.2 1020.5,1085.2 	"/>
	<polygon class="st1" points="870,191.1 796.1,191.1 759.1,255.1 796.1,319.1 870,319.1 906.9,255.1 	"/>
	<polygon class="st1" points="870,445.1 796.1,445.1 759.1,509.1 796.1,573.1 870,573.1 906.9,509.1 	"/>
	<polygon class="st1" points="870,317.1 796.1,317.1 759.1,381.1 796.1,445.1 870,445.1 906.9,381.1 	"/>
	<polygon class="st1" points="868,67.1 794.1,67.1 757.1,131.1 794.1,195.1 868,195.1 904.9,131.1 	"/>
	<polygon class="st1" points="876.5,825.4 802.6,825.4 765.7,889.4 802.6,953.4 876.5,953.4 913.5,889.4 	"/>
	<polygon class="st1" points="876.5,953.7 802.6,953.7 765.7,1017.7 802.6,1081.7 876.5,1081.7 913.5,1017.7 	"/>
	<polygon class="st1" points="762.4,127.8 688.5,127.8 651.5,191.8 688.5,255.8 762.4,255.8 799.3,191.8 	"/>
	<polygon class="st1" points="761.4,5.8 687.5,5.8 650.5,69.8 687.5,133.8 761.4,133.8 798.3,69.8 	"/>
	<polygon class="st1" points="765.4,510.8 691.5,510.8 654.5,574.8 691.5,638.8 765.4,638.8 802.3,574.8 	"/>
	<polygon class="st1" points="766.9,638.1 693,638.1 656.1,702.1 693,766.1 766.9,766.1 803.9,702.1 	"/>
	<polygon class="st1" points="769.9,764.1 696,764.1 659.1,828.1 696,892.1 769.9,892.1 806.9,828.1 	"/>
	<polygon class="st1" points="769.9,892.4 696,892.4 659.1,956.4 696,1020.4 769.9,1020.4 806.9,956.4 	"/>
	<polygon class="st1" points="766.9,1020.7 693,1020.7 656.1,1084.7 693,1148.7 766.9,1148.7 803.9,1084.7 	"/>
	<polygon class="st1" points="656,68 582.1,68 545.2,132 582.1,196 656,196 693,132 	"/>
	<polygon class="st1" points="660,573 586.1,573 549.2,637 586.1,701 660,701 697,637 	"/>
	<polygon class="st1" points="661.6,700.3 587.7,700.3 550.7,764.3 587.7,828.3 661.6,828.3 698.5,764.3 	"/>
	<polygon class="st1" points="664.6,826.3 590.7,826.3 553.7,890.3 590.7,954.3 664.6,954.3 701.5,890.3 	"/>
	<polygon class="st1" points="664.6,954.6 590.7,954.6 553.7,1018.6 590.7,1082.6 664.6,1082.6 701.5,1018.6 	"/>
	<polygon class="st1" points="550.4,128.7 476.5,128.7 439.6,192.7 476.5,256.7 550.4,256.7 587.4,192.7 	"/>
	<polygon class="st1" points="549.4,6.7 475.5,6.7 438.6,70.7 475.5,134.7 549.4,134.7 586.4,70.7 	"/>
	<polygon class="st1" points="553.4,511.7 479.5,511.7 442.6,575.7 479.5,639.7 553.4,639.7 590.4,575.7 	"/>
	<polygon class="st1" points="555,639 481.1,639 444.1,703 481.1,767 555,767 591.9,703 	"/>
	<polygon class="st1" points="558,893.3 484.1,893.3 447.1,957.3 484.1,1021.3 558,1021.3 594.9,957.3 	"/>
	<polygon class="st1" points="555,1021.6 481.1,1021.6 444.1,1085.6 481.1,1149.6 555,1149.6 591.9,1085.6 	"/>
	<polygon class="st1" points="439.4,67.5 365.5,67.5 328.6,131.5 365.5,195.5 439.4,195.5 476.4,131.5 	"/>
	<polygon class="st1" points="443.4,572.5 369.5,572.5 332.6,636.5 369.5,700.5 443.4,700.5 480.4,636.5 	"/>
	<polygon class="st1" points="448,954.1 374.1,954.1 337.1,1018.1 374.1,1082.1 448,1082.1 484.9,1018.1 	"/>
	<polygon class="st1" points="333.8,128.2 259.9,128.2 223,192.2 259.9,256.2 333.8,256.2 370.8,192.2 	"/>
	<polygon class="st1" points="336.8,511.2 262.9,511.2 226,575.2 262.9,639.2 336.8,639.2 373.8,575.2 	"/>
	<polygon class="st1" points="338.4,638.5 264.5,638.5 227.5,702.5 264.5,766.5 338.4,766.5 375.3,702.5 	"/>
	<polygon class="st1" points="341.4,892.8 267.5,892.8 230.5,956.8 267.5,1020.8 341.4,1020.8 378.3,956.8 	"/>
	<polygon class="st1" points="338.4,1021.2 264.5,1021.2 227.5,1085.2 264.5,1149.2 338.4,1149.2 375.3,1085.2 	"/>
	<polygon class="st1" points="225.3,451.8 151.4,451.8 114.5,515.8 151.4,579.8 225.3,579.8 262.3,515.8 	"/>
	<polygon class="st1" points="223.3,73.8 149.4,73.8 112.5,137.8 149.4,201.8 223.3,201.8 260.3,137.8 	"/>
	<polygon class="st1" points="228.9,706.1 155,706.1 118,770.1 155,834.1 228.9,834.1 265.8,770.1 	"/>
	<polygon class="st1" points="231.8,832.1 157.9,832.1 121,896.1 157.9,960.1 231.8,960.1 268.8,896.1 	"/>
	<polygon class="st1" points="117.7,134.5 43.8,134.5 6.8,198.5 43.8,262.5 117.7,262.5 154.6,198.5 	"/>
	<polygon class="st1" points="118.7,390.5 44.8,390.5 7.8,454.5 44.8,518.5 118.7,518.5 155.6,454.5 	"/>
	<polygon class="st1" points="118.7,262.5 44.8,262.5 7.8,326.5 44.8,390.5 118.7,390.5 155.6,326.5 	"/>
	<polygon class="st1" points="116.7,12.5 42.8,12.5 5.8,76.5 42.8,140.5 116.7,140.5 153.6,76.5 	"/>
	<polygon class="st1" points="125.2,770.8 51.3,770.8 14.4,834.8 51.3,898.8 125.2,898.8 162.2,834.8 	"/>
	<polygon class="st1" points="125.2,899.1 51.3,899.1 14.4,963.1 51.3,1027.1 125.2,1027.1 162.2,963.1 	"/>
	<polygon class="st1" points="122.2,1027.4 48.3,1027.4 11.4,1091.4 48.3,1155.4 122.2,1155.4 159.2,1091.4 	"/>
</g>
<g id="Layer_3_1_" class="st2">
	<polygon class="st3" points="560.6,766.8 486.7,766.8 449.8,830.8 486.7,894.8 560.6,894.8 597.6,830.8 	"/>
	<polygon class="st3" points="448.7,701.7 374.8,701.7 337.8,765.7 374.8,829.7 448.7,829.7 485.6,765.7 	"/>
	<polygon class="st3" points="450.6,827.7 376.7,827.7 339.8,891.7 376.7,955.7 450.6,955.7 487.6,891.7 	"/>
	<polygon class="st3" points="344,766.4 270.1,766.4 233.2,830.4 270.1,894.4 344,894.4 381,830.4 	"/>
</g>
<g id="Layer_1">
	<g id="Layer_4">
	</g>
	<g id="Layer_3">
		<text transform="matrix(1.0028 0 0 1 203.7713 455.7617)" class="st4 st5 st6">Honey</text>
		<text transform="matrix(1.0028 0 0 1 782.8577 788.748)" class="st4 st5 st6">Mart</text>
	</g>
</g>
</svg>
