<?xml version="1.0" encoding="utf-8"?>
<!-- Generator: Adobe Illustrator 23.0.3, SVG Export Plug-In . SVG Version: 6.00 Build 0)  -->
<svg version="1.1" xmlns="http://www.w3.org/2000/svg" xmlns:xlink="http://www.w3.org/1999/xlink" x="0px" y="0px"
	 viewBox="0 0 500 593.67" style="enable-background:new 0 0 500 593.67;" xml:space="preserve">
<style type="text/css">
	.st0{display:none;opacity:0.85;}
	.st1{fill:#FFC513;stroke:#B9752A;stroke-width:4;stroke-miterlimit:10;}
	.st2{opacity:0.63;fill:#FEDC50;}
	.st3{fill:url(#SVGID_1_);}
	.st4{fill:none;}
</style>
<g id="Layer_1">
	<g class="st0">
		
			<image style="display:inline;overflow:visible;" width="542" height="478" xlink:href="C723CF83.png"  transform="matrix(1 0 0 1 -8.527 20.9844)">
		</image>
	</g>
	<polygon class="st1" points="369.12,42.15 134.88,42.15 17.77,245 134.88,447.85 369.12,447.85 486.23,245 	"/>
</g>
<g id="Layer_2">
	<path class="st2" d="M136.36,44.61L20.53,245.9l115.81,198.93l231.33,0.83c0,0-169.72-110.04-232.47-198.76
		C77.19,164.9,136.36,44.61,136.36,44.61z"/>
</g>
<g id="Layer_3">
	<linearGradient id="SVGID_1_" gradientUnits="userSpaceOnUse" x1="251.246" y1="579.5233" x2="251.246" y2="444.8508">
		<stop  offset="0.2782" style="stop-color:#DFAC23"/>
		<stop  offset="0.6024" style="stop-color:#FDC314"/>
		<stop  offset="1" style="stop-color:#FEDC50;stop-opacity:0.9"/>
	</linearGradient>
	<path class="st3" d="M134.97,444.85c0,0-5,19.15,15.5,37.15s46.68,11.75,66.68,19.75s35.82,79.25,49.82,77.75s15.5-86,27.5-88.5
		s19,18.53,19,25.76s0,34.24,12,37.24s6.23-66.12,18.5-76c12.27-9.88,24.08-32.33,24.08-32.33L134.97,444.85z"/>
	<line class="st4" x1="-173" y1="49.67" x2="-172.33" y2="51"/>
</g>
</svg>
