<?xml version="1.0" encoding="utf-8"?>
<!-- Generator: Adobe Illustrator 23.0.3, SVG Export Plug-In . SVG Version: 6.00 Build 0)  -->
<svg version="1.1" xmlns="http://www.w3.org/2000/svg" xmlns:xlink="http://www.w3.org/1999/xlink" x="0px" y="0px"
	 viewBox="0 0 1772 1310" style="enable-background:new 0 0 1772 1310;" xml:space="preserve">
<style type="text/css">
	.st0{fill:#F1B81C;stroke:#FFFFFF;stroke-width:2.1456;stroke-miterlimit:10;}
	.st1{fill:#FFFFFF;}
	.st2{fill:#DFA126;}
	.st3{fill:#F8CB18;stroke:#FFFFFF;stroke-width:2;stroke-miterlimit:10;}
	.st4{fill:#503211;}
	.st5{font-family:'AlwynNewRounded-Light';}
	.st6{font-size:226.0954px;}
	.st7{font-size:146.6751px;}
	.st8{font-family:'AdornSCondensedSans';}
	.st9{font-size:231.7378px;}
</style>
<g id="Layer_5">
	<rect x="-47.44" y="-64" class="st0" width="1876" height="1404"/>
</g>
<g id="Layer_6">
	<rect x="113.56" y="148" class="st1" width="1543" height="991"/>
</g>
<g id="Layer_4">
	<polygon class="st2" points="1119.96,565.3 1046.06,565.3 1009.11,629.3 1046.06,693.3 1119.96,693.3 1156.91,629.3 	"/>
	<polygon class="st2" points="1228.96,501.3 1155.06,501.3 1118.11,565.3 1155.06,629.3 1228.96,629.3 1265.91,565.3 	"/>
	<polygon class="st2" points="1010.51,501.6 936.61,501.6 899.66,565.6 936.61,629.6 1010.51,629.6 1047.46,565.6 	"/>
	<polygon class="st2" points="1231.96,627.3 1158.06,627.3 1121.11,691.3 1158.06,755.3 1231.96,755.3 1268.92,691.3 	"/>
	<polygon class="st2" points="1340.96,690.3 1267.06,690.3 1230.11,754.3 1267.06,818.3 1340.96,818.3 1377.92,754.3 	"/>
	<polygon class="st2" points="1013.51,755.6 939.61,755.6 902.66,819.6 939.61,883.6 1013.51,883.6 1050.46,819.6 	"/>
	<polygon class="st2" points="1122.51,691.6 1048.61,691.6 1011.66,755.6 1048.61,819.6 1122.51,819.6 1159.46,755.6 	"/>
	<polygon class="st2" points="1558.97,436.3 1485.07,436.3 1448.12,500.3 1485.07,564.3 1558.97,564.3 1595.92,500.3 	"/>
	<polygon class="st2" points="1669.97,498.3 1596.07,498.3 1559.12,562.3 1596.07,626.3 1669.97,626.3 1706.92,562.3 	"/>
	<polygon class="st2" points="1340.51,562.6 1266.61,562.6 1229.66,626.6 1266.61,690.6 1340.51,690.6 1377.47,626.6 	"/>
	<polygon class="st2" points="1449.51,500.6 1375.61,500.6 1338.66,564.6 1375.61,628.6 1449.51,628.6 1486.47,564.6 	"/>
	<polygon class="st2" points="1670.97,754.3 1597.07,754.3 1560.12,818.3 1597.07,882.3 1670.97,882.3 1707.92,818.3 	"/>
	<polygon class="st2" points="1670.97,626.3 1597.07,626.3 1560.12,690.3 1597.07,754.3 1670.97,754.3 1707.92,690.3 	"/>
	<polygon class="st2" points="1451.52,626.6 1377.61,626.6 1340.66,690.6 1377.61,754.6 1451.52,754.6 1488.47,690.6 	"/>
	<polygon class="st2" points="1561.52,690.6 1487.61,690.6 1450.66,754.6 1487.61,818.6 1561.52,818.6 1598.47,754.6 	"/>
	<polygon class="st2" points="1117.97,187.3 1044.06,187.3 1007.11,251.3 1044.06,315.3 1117.97,315.3 1154.92,251.3 	"/>
	<polygon class="st2" points="1117.97,59.3 1044.06,59.3 1007.11,123.3 1044.06,187.3 1117.97,187.3 1154.92,123.3 	"/>
	<polygon class="st2" points="1226.97,123.3 1153.06,123.3 1116.11,187.3 1153.06,251.3 1226.97,251.3 1263.92,187.3 	"/>
	<polygon class="st2" points="899.51,187.6 825.61,187.6 788.66,251.6 825.61,315.6 899.51,315.6 936.46,251.6 	"/>
	<polygon class="st2" points="1229.97,249.3 1156.06,249.3 1119.11,313.3 1156.06,377.3 1229.97,377.3 1266.92,313.3 	"/>
	<polygon class="st2" points="1008.51,251.6 934.61,251.6 897.66,315.6 934.61,379.6 1008.51,379.6 1045.46,315.6 	"/>
	<polygon class="st2" points="1338.52,184.6 1264.61,184.6 1227.66,248.6 1264.61,312.6 1338.52,312.6 1375.47,248.6 	"/>
	<polygon class="st2" points="1337.52,58.6 1263.61,58.6 1226.66,122.6 1263.61,186.6 1337.52,186.6 1374.47,122.6 	"/>
	<polygon class="st2" points="1447.52,122.6 1373.61,122.6 1336.66,186.6 1373.61,250.6 1447.52,250.6 1484.47,186.6 	"/>
	<polygon class="st2" points="1668.97,376.3 1595.07,376.3 1558.12,440.3 1595.07,504.3 1668.97,504.3 1705.92,440.3 	"/>
	<polygon class="st2" points="1449.52,376.6 1375.61,376.6 1338.66,440.6 1375.61,504.6 1449.52,504.6 1486.47,440.6 	"/>
	<polygon class="st2" points="1449.52,248.6 1375.61,248.6 1338.66,312.6 1375.61,376.6 1449.52,376.6 1486.47,312.6 	"/>
	<polygon class="st2" points="1559.52,312.6 1485.61,312.6 1448.66,376.6 1485.61,440.6 1559.52,440.6 1596.47,376.6 	"/>
	<polygon class="st2" points="349.97,505.6 276.07,505.6 239.12,569.6 276.07,633.6 349.97,633.6 386.92,569.6 	"/>
	<polygon class="st2" points="352.97,759.6 279.07,759.6 242.12,823.6 279.07,887.6 352.97,887.6 389.92,823.6 	"/>
	<polygon class="st2" points="461.97,694.6 388.07,694.6 351.12,758.6 388.07,822.6 461.97,822.6 498.92,758.6 	"/>
	<polygon class="st2" points="134.52,759.9 60.62,759.9 23.67,823.9 60.62,887.9 134.52,887.9 171.47,823.9 	"/>
	<polygon class="st2" points="680.98,567.6 607.08,567.6 570.13,631.6 607.08,695.6 680.98,695.6 717.93,631.6 	"/>
	<polygon class="st2" points="790.98,502.6 717.08,502.6 680.13,566.6 717.08,630.6 790.98,630.6 827.93,566.6 	"/>
	<polygon class="st2" points="461.52,566.9 387.62,566.9 350.67,630.9 387.62,694.9 461.52,694.9 498.47,630.9 	"/>
	<polygon class="st2" points="460.52,440.9 386.62,440.9 349.67,504.9 386.62,568.9 460.52,568.9 497.47,504.9 	"/>
	<polygon class="st2" points="570.52,504.9 496.62,504.9 459.67,568.9 496.62,632.9 570.52,632.9 607.47,568.9 	"/>
	<polygon class="st2" points="791.98,630.6 718.08,630.6 681.13,694.6 718.08,758.6 791.98,758.6 828.93,694.6 	"/>
	<polygon class="st2" points="572.52,630.9 498.62,630.9 461.67,694.9 498.62,758.9 572.52,758.9 609.48,694.9 	"/>
	<polygon class="st2" points="682.52,694.9 608.62,694.9 571.67,758.9 608.62,822.9 682.52,822.9 719.48,758.9 	"/>
	<polygon class="st2" points="238.97,191.6 165.07,191.6 128.12,255.6 165.07,319.6 238.97,319.6 275.92,255.6 	"/>
	<polygon class="st2" points="238.97,63.6 165.07,63.6 128.12,127.6 165.07,191.6 238.97,191.6 275.92,127.6 	"/>
	<polygon class="st2" points="347.97,127.6 274.07,127.6 237.12,191.6 274.07,255.6 347.97,255.6 384.92,191.6 	"/>
	<polygon class="st2" points="129.52,127.9 55.62,127.9 18.67,191.9 55.62,255.9 129.52,255.9 166.47,191.9 	"/>
	<polygon class="st2" points="350.97,381.6 277.07,381.6 240.12,445.6 277.07,509.6 350.97,509.6 387.93,445.6 	"/>
	<polygon class="st2" points="350.97,253.6 277.07,253.6 240.12,317.6 277.07,381.6 350.97,381.6 387.93,317.6 	"/>
	<polygon class="st2" points="132.52,381.9 58.62,381.9 21.67,445.9 58.62,509.9 132.52,509.9 169.47,445.9 	"/>
	<polygon class="st2" points="129.52,255.9 55.62,255.9 18.67,319.9 55.62,383.9 129.52,383.9 166.47,319.9 	"/>
	<polygon class="st2" points="241.52,317.9 167.62,317.9 130.67,381.9 167.62,445.9 241.52,445.9 278.47,381.9 	"/>
	<polygon class="st2" points="788.98,124.6 715.08,124.6 678.13,188.6 715.08,252.6 788.98,252.6 825.93,188.6 	"/>
	<polygon class="st2" points="459.52,188.9 385.62,188.9 348.67,252.9 385.62,316.9 459.52,316.9 496.48,252.9 	"/>
	<polygon class="st2" points="458.52,62.9 384.62,62.9 347.67,126.9 384.62,190.9 458.52,190.9 495.48,126.9 	"/>
	<polygon class="st2" points="1014.51,883.6 940.61,883.6 903.66,947.6 940.61,1011.6 1014.51,1011.6 1051.46,947.6 	"/>
	<polygon class="st2" points="1344.97,1073.31 1271.06,1073.31 1234.11,1137.31 1271.06,1201.31 1344.97,1201.31 1381.92,1137.31 	
		"/>
	<polygon class="st2" points="1453.97,1008.31 1380.06,1008.31 1343.11,1072.31 1380.06,1136.31 1453.97,1136.31 1490.92,1072.31 	
		"/>
	<polygon class="st2" points="1126.51,1073.61 1052.61,1073.61 1015.66,1137.61 1052.61,1201.61 1126.51,1201.61 1163.46,1137.61 	
		"/>
	<polygon class="st2" points="1235.51,1009.61 1161.61,1009.61 1124.66,1073.61 1161.61,1137.61 1235.51,1137.61 1272.46,1073.61 	
		"/>
	<polygon class="st2" points="1672.97,881.31 1599.07,881.31 1562.12,945.31 1599.07,1009.31 1672.97,1009.31 1709.92,945.31 	"/>
	<polygon class="st2" points="1562.52,818.61 1488.61,818.61 1451.66,882.61 1488.61,946.61 1562.52,946.61 1599.47,882.61 	"/>
	<polygon class="st2" points="1564.52,1072.61 1490.62,1072.61 1453.66,1136.61 1490.62,1200.61 1564.52,1200.61 1601.47,1136.61 	
		"/>
	<polygon class="st2" points="1564.52,944.61 1490.62,944.61 1453.66,1008.61 1490.62,1072.61 1564.52,1072.61 1601.47,1008.61 	"/>
	<polygon class="st2" points="1674.52,1008.61 1600.62,1008.61 1563.66,1072.61 1600.62,1136.61 1674.52,1136.61 1711.47,1072.61 	
		"/>
	<polygon class="st2" points="353.97,887.6 280.07,887.6 243.12,951.6 280.07,1015.6 353.97,1015.6 390.92,951.6 	"/>
	<polygon class="st2" points="135.52,887.9 61.62,887.9 24.67,951.9 61.62,1015.9 135.52,1015.9 172.47,951.9 	"/>
	<polygon class="st2" points="244.52,823.9 170.62,823.9 133.67,887.9 170.62,951.9 244.52,951.9 281.47,887.9 	"/>
	<polygon class="st2" points="465.97,1077.61 392.07,1077.61 355.12,1141.61 392.07,1205.61 465.97,1205.61 502.93,1141.61 	"/>
	<polygon class="st2" points="574.97,1012.61 501.07,1012.61 464.12,1076.61 501.07,1140.61 574.97,1140.61 611.93,1076.61 	"/>
	<polygon class="st2" points="356.52,1013.91 282.62,1013.91 245.67,1077.91 282.62,1141.91 356.52,1141.91 393.47,1077.91 	"/>
	<polygon class="st2" points="904.98,1076.61 831.08,1076.61 794.13,1140.61 831.08,1204.61 904.98,1204.61 941.93,1140.61 	"/>
	<polygon class="st2" points="1013.98,1011.61 940.08,1011.61 903.13,1075.61 940.08,1139.61 1013.98,1139.61 1050.93,1075.61 	"/>
	<polygon class="st2" points="685.53,948.91 611.62,948.91 574.67,1012.91 611.62,1076.91 685.53,1076.91 722.48,1012.91 	"/>
	<polygon class="st2" points="795.53,1012.91 721.62,1012.91 684.67,1076.91 721.62,1140.91 795.53,1140.91 832.48,1076.91 	"/>
	<polygon class="st2" points="1456.96,1134.31 1383.06,1134.31 1346.11,1198.31 1383.06,1262.31 1456.96,1262.31 1493.91,1198.31 	
		"/>
	<polygon class="st2" points="1238.51,1135.61 1164.61,1135.61 1127.66,1199.61 1164.61,1263.61 1238.51,1263.61 1275.46,1199.61 	
		"/>
	<polygon class="st2" points="1677.51,1134.61 1603.61,1134.61 1566.66,1198.61 1603.61,1262.61 1677.51,1262.61 1714.46,1198.61 	
		"/>
	<polygon class="st2" points="577.97,1138.61 504.07,1138.61 467.12,1202.61 504.07,1266.61 577.97,1266.61 614.92,1202.61 	"/>
	<polygon class="st2" points="359.52,1139.91 285.62,1139.91 248.67,1203.91 285.62,1267.91 359.52,1267.91 396.47,1203.91 	"/>
	<polygon class="st2" points="1016.98,1137.61 943.08,1137.61 906.13,1201.61 943.08,1265.61 1016.98,1265.61 1053.93,1201.61 	"/>
	<polygon class="st2" points="138.52,1141.91 64.62,1141.91 27.67,1205.91 64.62,1269.91 138.52,1269.91 175.47,1205.91 	"/>
</g>
<g id="Layer_1">
	<polygon class="st3" points="1112.96,549.3 1039.06,549.3 1002.11,613.3 1039.06,677.3 1112.96,677.3 1149.91,613.3 	"/>
	<polygon class="st3" points="1221.96,485.3 1148.06,485.3 1111.11,549.3 1148.06,613.3 1221.96,613.3 1258.91,549.3 	"/>
	<polygon class="st3" points="1003.51,485.6 929.61,485.6 892.66,549.6 929.61,613.6 1003.51,613.6 1040.46,549.6 	"/>
	<polygon class="st3" points="1224.96,611.3 1151.06,611.3 1114.11,675.3 1151.06,739.3 1224.96,739.3 1261.92,675.3 	"/>
	<polygon class="st3" points="1333.96,674.3 1260.06,674.3 1223.11,738.3 1260.06,802.3 1333.96,802.3 1370.92,738.3 	"/>
	<polygon class="st3" points="1006.51,739.6 932.61,739.6 895.66,803.6 932.61,867.6 1006.51,867.6 1043.46,803.6 	"/>
	<polygon class="st3" points="1115.51,675.6 1041.61,675.6 1004.66,739.6 1041.61,803.6 1115.51,803.6 1152.46,739.6 	"/>
	<polygon class="st3" points="1551.97,420.3 1478.07,420.3 1441.12,484.3 1478.07,548.3 1551.97,548.3 1588.92,484.3 	"/>
	<polygon class="st3" points="1662.97,482.3 1589.07,482.3 1552.12,546.3 1589.07,610.3 1662.97,610.3 1699.92,546.3 	"/>
	<polygon class="st3" points="1333.51,546.6 1259.61,546.6 1222.66,610.6 1259.61,674.6 1333.51,674.6 1370.47,610.6 	"/>
	<polygon class="st3" points="1442.51,484.6 1368.61,484.6 1331.66,548.6 1368.61,612.6 1442.51,612.6 1479.47,548.6 	"/>
	<polygon class="st3" points="1663.97,738.3 1590.07,738.3 1553.12,802.3 1590.07,866.3 1663.97,866.3 1700.92,802.3 	"/>
	<polygon class="st3" points="1663.97,610.3 1590.07,610.3 1553.12,674.3 1590.07,738.3 1663.97,738.3 1700.92,674.3 	"/>
	<polygon class="st3" points="1444.52,610.6 1370.61,610.6 1333.66,674.6 1370.61,738.6 1444.52,738.6 1481.47,674.6 	"/>
	<polygon class="st3" points="1554.52,674.6 1480.61,674.6 1443.66,738.6 1480.61,802.6 1554.52,802.6 1591.47,738.6 	"/>
	<polygon class="st3" points="1110.97,171.3 1037.06,171.3 1000.11,235.3 1037.06,299.3 1110.97,299.3 1147.92,235.3 	"/>
	<polygon class="st3" points="1110.97,43.3 1037.06,43.3 1000.11,107.3 1037.06,171.3 1110.97,171.3 1147.92,107.3 	"/>
	<polygon class="st3" points="1219.97,107.3 1146.06,107.3 1109.11,171.3 1146.06,235.3 1219.97,235.3 1256.92,171.3 	"/>
	<polygon class="st3" points="892.51,171.6 818.61,171.6 781.66,235.6 818.61,299.6 892.51,299.6 929.46,235.6 	"/>
	<polygon class="st3" points="1222.97,233.3 1149.06,233.3 1112.11,297.3 1149.06,361.3 1222.97,361.3 1259.92,297.3 	"/>
	<polygon class="st3" points="1001.51,235.6 927.61,235.6 890.66,299.6 927.61,363.6 1001.51,363.6 1038.46,299.6 	"/>
	<polygon class="st3" points="1331.52,168.6 1257.61,168.6 1220.66,232.6 1257.61,296.6 1331.52,296.6 1368.47,232.6 	"/>
	<polygon class="st3" points="1330.52,42.6 1256.61,42.6 1219.66,106.6 1256.61,170.6 1330.52,170.6 1367.47,106.6 	"/>
	<polygon class="st3" points="1440.52,106.6 1366.61,106.6 1329.66,170.6 1366.61,234.6 1440.52,234.6 1477.47,170.6 	"/>
	<polygon class="st3" points="1661.97,360.3 1588.07,360.3 1551.12,424.3 1588.07,488.3 1661.97,488.3 1698.92,424.3 	"/>
	<polygon class="st3" points="1442.52,360.6 1368.61,360.6 1331.66,424.6 1368.61,488.6 1442.52,488.6 1479.47,424.6 	"/>
	<polygon class="st3" points="1442.52,232.6 1368.61,232.6 1331.66,296.6 1368.61,360.6 1442.52,360.6 1479.47,296.6 	"/>
	<polygon class="st3" points="1552.52,296.6 1478.61,296.6 1441.66,360.6 1478.61,424.6 1552.52,424.6 1589.47,360.6 	"/>
	<polygon class="st3" points="342.97,489.6 269.07,489.6 232.12,553.6 269.07,617.6 342.97,617.6 379.92,553.6 	"/>
	<polygon class="st3" points="345.97,743.6 272.07,743.6 235.12,807.6 272.07,871.6 345.97,871.6 382.92,807.6 	"/>
	<polygon class="st3" points="454.97,678.6 381.07,678.6 344.12,742.6 381.07,806.6 454.97,806.6 491.92,742.6 	"/>
	<polygon class="st3" points="127.52,743.9 53.62,743.9 16.67,807.9 53.62,871.9 127.52,871.9 164.47,807.9 	"/>
	<polygon class="st3" points="673.98,551.6 600.08,551.6 563.13,615.6 600.08,679.6 673.98,679.6 710.93,615.6 	"/>
	<polygon class="st3" points="783.98,486.6 710.08,486.6 673.13,550.6 710.08,614.6 783.98,614.6 820.93,550.6 	"/>
	<polygon class="st3" points="454.52,550.9 380.62,550.9 343.67,614.9 380.62,678.9 454.52,678.9 491.47,614.9 	"/>
	<polygon class="st3" points="453.52,424.9 379.62,424.9 342.67,488.9 379.62,552.9 453.52,552.9 490.47,488.9 	"/>
	<polygon class="st3" points="563.52,488.9 489.62,488.9 452.67,552.9 489.62,616.9 563.52,616.9 600.47,552.9 	"/>
	<polygon class="st3" points="784.98,614.6 711.08,614.6 674.13,678.6 711.08,742.6 784.98,742.6 821.93,678.6 	"/>
	<polygon class="st3" points="565.52,614.9 491.62,614.9 454.67,678.9 491.62,742.9 565.52,742.9 602.48,678.9 	"/>
	<polygon class="st3" points="675.52,678.9 601.62,678.9 564.67,742.9 601.62,806.9 675.52,806.9 712.48,742.9 	"/>
	<polygon class="st3" points="231.97,175.6 158.07,175.6 121.12,239.6 158.07,303.6 231.97,303.6 268.92,239.6 	"/>
	<polygon class="st3" points="231.97,47.6 158.07,47.6 121.12,111.6 158.07,175.6 231.97,175.6 268.92,111.6 	"/>
	<polygon class="st3" points="340.97,111.6 267.07,111.6 230.12,175.6 267.07,239.6 340.97,239.6 377.92,175.6 	"/>
	<polygon class="st3" points="122.52,111.9 48.62,111.9 11.67,175.9 48.62,239.9 122.52,239.9 159.47,175.9 	"/>
	<polygon class="st3" points="343.97,365.6 270.07,365.6 233.12,429.6 270.07,493.6 343.97,493.6 380.93,429.6 	"/>
	<polygon class="st3" points="343.97,237.6 270.07,237.6 233.12,301.6 270.07,365.6 343.97,365.6 380.93,301.6 	"/>
	<polygon class="st3" points="125.52,365.9 51.62,365.9 14.67,429.9 51.62,493.9 125.52,493.9 162.47,429.9 	"/>
	<polygon class="st3" points="122.52,239.9 48.62,239.9 11.67,303.9 48.62,367.9 122.52,367.9 159.47,303.9 	"/>
	<polygon class="st3" points="234.52,301.9 160.62,301.9 123.67,365.9 160.62,429.9 234.52,429.9 271.47,365.9 	"/>
	<polygon class="st3" points="781.98,108.6 708.08,108.6 671.13,172.6 708.08,236.6 781.98,236.6 818.93,172.6 	"/>
	<polygon class="st3" points="452.52,172.9 378.62,172.9 341.67,236.9 378.62,300.9 452.52,300.9 489.48,236.9 	"/>
	<polygon class="st3" points="451.52,46.9 377.62,46.9 340.67,110.9 377.62,174.9 451.52,174.9 488.48,110.9 	"/>
	<polygon class="st3" points="1007.51,867.6 933.61,867.6 896.66,931.6 933.61,995.6 1007.51,995.6 1044.46,931.6 	"/>
	<polygon class="st3" points="1337.97,1057.31 1264.06,1057.31 1227.11,1121.31 1264.06,1185.31 1337.97,1185.31 1374.92,1121.31 	
		"/>
	<polygon class="st3" points="1446.97,992.31 1373.06,992.31 1336.11,1056.31 1373.06,1120.31 1446.97,1120.31 1483.92,1056.31 	"/>
	<polygon class="st3" points="1119.51,1057.61 1045.61,1057.61 1008.66,1121.61 1045.61,1185.61 1119.51,1185.61 1156.46,1121.61 	
		"/>
	<polygon class="st3" points="1228.51,993.61 1154.61,993.61 1117.66,1057.61 1154.61,1121.61 1228.51,1121.61 1265.46,1057.61 	"/>
	<polygon class="st3" points="1665.97,865.31 1592.07,865.31 1555.12,929.31 1592.07,993.31 1665.97,993.31 1702.92,929.31 	"/>
	<polygon class="st3" points="1555.52,802.61 1481.61,802.61 1444.66,866.61 1481.61,930.61 1555.52,930.61 1592.47,866.61 	"/>
	<polygon class="st3" points="1557.52,1056.61 1483.62,1056.61 1446.66,1120.61 1483.62,1184.61 1557.52,1184.61 1594.47,1120.61 	
		"/>
	<polygon class="st3" points="1557.52,928.61 1483.62,928.61 1446.66,992.61 1483.62,1056.61 1557.52,1056.61 1594.47,992.61 	"/>
	<polygon class="st3" points="1667.52,992.61 1593.62,992.61 1556.66,1056.61 1593.62,1120.61 1667.52,1120.61 1704.47,1056.61 	"/>
	<polygon class="st3" points="346.97,871.6 273.07,871.6 236.12,935.6 273.07,999.6 346.97,999.6 383.92,935.6 	"/>
	<polygon class="st3" points="128.52,871.9 54.62,871.9 17.67,935.9 54.62,999.9 128.52,999.9 165.47,935.9 	"/>
	<polygon class="st3" points="237.52,807.9 163.62,807.9 126.67,871.9 163.62,935.9 237.52,935.9 274.47,871.9 	"/>
	<polygon class="st3" points="458.97,1061.61 385.07,1061.61 348.12,1125.61 385.07,1189.61 458.97,1189.61 495.93,1125.61 	"/>
	<polygon class="st3" points="567.97,996.61 494.07,996.61 457.12,1060.61 494.07,1124.61 567.97,1124.61 604.93,1060.61 	"/>
	<polygon class="st3" points="349.52,997.91 275.62,997.91 238.67,1061.91 275.62,1125.91 349.52,1125.91 386.47,1061.91 	"/>
	<polygon class="st3" points="897.98,1060.61 824.08,1060.61 787.13,1124.61 824.08,1188.61 897.98,1188.61 934.93,1124.61 	"/>
	<polygon class="st3" points="1006.98,995.61 933.08,995.61 896.13,1059.61 933.08,1123.61 1006.98,1123.61 1043.93,1059.61 	"/>
	<polygon class="st3" points="678.53,932.91 604.62,932.91 567.67,996.91 604.62,1060.91 678.53,1060.91 715.48,996.91 	"/>
	<polygon class="st3" points="788.53,996.91 714.62,996.91 677.67,1060.91 714.62,1124.91 788.53,1124.91 825.48,1060.91 	"/>
	<polygon class="st3" points="1449.96,1118.31 1376.06,1118.31 1339.11,1182.31 1376.06,1246.31 1449.96,1246.31 1486.91,1182.31 	
		"/>
	<polygon class="st3" points="1231.51,1119.61 1157.61,1119.61 1120.66,1183.61 1157.61,1247.61 1231.51,1247.61 1268.46,1183.61 	
		"/>
	<polygon class="st3" points="1670.51,1118.61 1596.61,1118.61 1559.66,1182.61 1596.61,1246.61 1670.51,1246.61 1707.46,1182.61 	
		"/>
	<polygon class="st3" points="570.97,1122.61 497.07,1122.61 460.12,1186.61 497.07,1250.61 570.97,1250.61 607.92,1186.61 	"/>
	<polygon class="st3" points="352.52,1123.91 278.62,1123.91 241.67,1187.91 278.62,1251.91 352.52,1251.91 389.47,1187.91 	"/>
	<polygon class="st3" points="1009.98,1121.61 936.08,1121.61 899.13,1185.61 936.08,1249.61 1009.98,1249.61 1046.93,1185.61 	"/>
	<polygon class="st3" points="131.52,1125.91 57.62,1125.91 20.67,1189.91 57.62,1253.91 131.52,1253.91 168.47,1189.91 	"/>
</g>
<g id="Layer_3">
	<text transform="matrix(1 0 0 1 439.9258 484.4238)" class="st4 st5 st6">Welcome</text>
	<text transform="matrix(1 0 0 1 859.4193 720.9036)" class="st4 st5 st7">to</text>
	<g>
		<text transform="matrix(1 0 0 1 349.9255 989.217)" class="st4 st8 st9">Honey  Mart</text>
	</g>
</g>
</svg>
